<svg width="478" height="724" viewBox="0 0 478 724" fill="none" xmlns="http://www.w3.org/2000/svg">
<path d="M415.529 34.9238C416.619 34.0819 416.831 34.8675 416.371 36.0133C415.911 37.1591 414.588 35.651 415.529 34.9238ZM467.463 280.472C467.871 278.338 469.197 279.132 468.61 281.958C468.024 284.783 466.926 283.259 467.463 280.472ZM467.677 285.051C470.996 282.487 469.282 299.624 469.876 299.164C468.272 294.638 467.526 289.852 467.677 285.051ZM471.316 312.601C472.125 310.474 465.235 307.493 468.68 306.73C470.064 306.372 470.06 306.059 468.467 304.918C466.873 303.777 466.984 303.613 468.228 303.995C471.245 304.828 467.973 301.821 469.459 300.673C470.946 299.525 470.32 304.04 471.938 301.526C473.555 299.011 473.577 305.082 471.874 306.872C469.455 309.373 475.251 312.882 472.922 314.681C472.03 315.369 471.036 314.082 471.469 312.799L471.316 312.601ZM460.492 310.366C460.819 300.547 453.274 267.632 457.647 275.957C459.707 280.058 456.615 281.893 459.599 285.755C467.086 296.576 459.967 326.585 460.393 310.442L460.492 310.366ZM461.659 318.636C463.443 317.258 464.397 323.717 462.178 320.844C461.49 319.953 461.213 318.981 461.659 318.636ZM451.573 409.839C453.307 408.5 453.118 409.279 452.376 410.879C451.635 412.48 450.087 410.987 451.573 409.839ZM444.619 413.945C445.61 413.18 446.949 414.913 445.499 415.084C444.049 415.256 443.479 414.826 444.619 413.945ZM441.531 411.586C442.919 410.515 446.146 413.873 442.87 413.32C441.591 413.2 440.838 412.122 441.531 411.586ZM420.052 406.513C421.983 406.761 421.849 408.841 419.848 408.093C417.847 407.346 418.032 406.254 420.052 406.513ZM414.135 407.763C415.324 406.844 417.447 407.339 417.3 408.481C417.153 409.622 411.459 409.829 414.135 407.763ZM405.806 409.372C406.401 408.913 408.429 409.798 407.537 410.486C406.645 411.175 405.459 409.64 405.806 409.372ZM399.129 409.944C402.612 409.231 405.692 411.99 398.452 411.732C395.571 411.585 395.898 410.78 399.129 409.944ZM407.334 416.573C416.799 414.797 414.851 416.064 407.908 417.316C398.404 419.043 400.39 417.825 407.334 416.573ZM391.336 412.247C394.209 410.028 395.029 414.059 392.492 414.359C389.954 414.658 390.147 413.166 391.336 412.247ZM395.48 418.534C395.975 418.152 403.087 417.323 398.026 418.861C395.306 419.538 394.34 419.414 395.48 418.534ZM381.794 413.925C383.631 414.562 388.284 413.418 387.046 414.375C385.807 415.331 379.72 415.131 379.844 414.166C379.968 413.2 380.637 413.553 381.794 413.925ZM386.269 419.719C391.283 419.246 385.946 422.577 384.683 420.943C384.301 420.448 384.747 420.103 386.269 419.719ZM374.708 421.137C397.708 418.552 369.109 425.461 366.929 422.639C366.623 422.243 370.144 421.578 374.708 421.137ZM363.437 422.727C365.839 421.741 366.023 424.129 363.679 423.962C361.336 423.796 361.309 423.659 363.437 422.727ZM358.499 423.299C360.553 423.294 361.272 424.636 358.33 424.615C355.387 424.595 355.557 423.278 358.499 423.299ZM351.364 424.303C353.852 424.042 355.052 424.775 353.714 425.809C352.376 426.842 345.279 425.129 351.364 424.303ZM345.862 424.757C346.803 424.03 348.153 425.676 346.704 425.847C345.254 426.018 344.722 425.638 345.862 424.757ZM277.315 691.809C279.233 691.117 279.052 692.522 277.477 692.632C275.901 692.743 275.606 692.259 277.315 691.809ZM237.055 713.732C237.055 713.732 247.294 710.806 244.764 713.471C242.235 716.136 235.222 715.148 237.055 713.732ZM31.0477 714.323C35.2845 714.688 35.342 717.015 31.711 716.104C28.08 715.192 27.3872 713.988 31.0477 714.323ZM23.1461 713.31C30.8678 713.988 22.1813 715.953 20.4983 713.774C20.1541 713.329 21.3406 713.124 23.1461 713.31ZM-156.328 675.539C-148.737 677.582 -149.578 674.753 -136.709 679.124C-109.27 689.557 -98.7249 694.299 -76.6549 698.601C172.522 750.214 252.469 702.144 234.607 716.81C233.071 717.996 245.443 715.477 252.507 712.946C258.163 710.95 270.019 705.509 263.717 706.976C259.535 707.913 261.369 706.497 268.027 703.647C271.299 702.148 273.423 700.903 273.326 700.266C273.23 699.629 277.871 697.546 281.339 694.868C284.807 692.189 280.515 695.03 278.232 694.737C275.949 694.444 281.008 693.621 280.352 691.439C279.696 689.258 289.029 686.081 285.082 685.888C283.579 685.784 279.232 683.844 282.596 682.669C285.96 681.494 287.551 678.842 290.818 678.77C294.084 678.698 294.366 678.243 292.386 676.294C290.405 674.345 293.224 673.591 292.268 672.352C292 672.006 292.719 670.581 293.778 669.289C304.252 657.245 303.269 631.597 306.53 639.199C313.518 654.596 301.071 595.977 281.218 544.976C254.849 480.111 214.367 443.778 216.115 437.131C216.482 435.661 216.363 435.199 215.184 435.003C214.004 434.807 213.615 432.973 221.429 433.974C226.9 434.809 229.75 434.505 231.45 433.429C236.51 432.524 241.7 432.658 246.705 433.823C247.432 434.764 251.824 434.613 252.635 433.512C253.446 432.411 254.612 433.408 256.399 434.084C262.821 435.844 257.231 431.781 267.636 432.758C281.625 433.97 305.696 430.006 307.035 431.739C308.373 433.472 326.172 428.659 327.855 430.838C328.888 432.175 335.068 430.959 334.123 429.634C333.741 429.138 334.421 429.404 335.407 430.066C338.785 432.596 339.658 427.889 344.079 428.902C346.817 429.476 357.504 428.258 355.641 427.483C353.777 426.709 375.428 425.245 375.741 425.241C399.594 425.398 392.877 418.647 396.243 423.005C397.773 424.986 397.774 423.246 401.308 423.52C404.843 423.795 405.035 422.302 405.259 424.027C405.483 425.751 406.745 422.878 408.182 421.769C409.619 420.659 396.14 421.029 410.162 419.212C418.209 418.057 416.13 420.69 420.23 419.342C424.331 417.993 423.438 420.422 426.163 418.317C427.352 417.399 427.668 416.681 426.851 416.442C426.033 416.204 426.353 415.799 427.909 415.15C438.466 410.792 434.424 415.494 438.054 413.639C440.365 412.329 444.351 415.339 441.711 416.428C440.689 416.743 440.324 417.5 440.324 417.5C441.892 419.53 459.904 407.516 460.867 403.847C461.39 401.861 459.933 399.667 458.496 400.776C457.059 401.886 455.684 401.13 457.578 399.588C459.472 398.046 458.724 398.307 456.184 399.32C447.805 402.708 462.118 390.309 459.628 391.284C458.754 391.484 458.388 391.214 458.595 389.947C458.803 388.679 455.545 389.377 455.218 390.183C454.891 390.989 448.777 395.158 453.535 388.004C454.788 386.246 456.501 381.602 467.063 383.09C469.495 383.268 489.758 380.109 467.948 380.035C462.803 380.134 462.471 382.367 461.056 380.535C459.641 378.703 456.326 379.84 458.34 377.019C461.246 373.51 460.723 370.988 464.122 370.576C467.522 370.164 465.761 366.86 470.514 365.64C473.646 364.881 474.34 364.345 472.397 364.185C470.454 364.026 469.372 362.727 471.02 362.403C472.668 362.078 471.621 361.543 471.257 360.559C470.364 358.481 471.671 356.998 472.933 358.632C475.725 362.247 476.382 349.169 476.038 348.723C474.737 347.039 477.593 349.815 477.031 342.737C476.215 334.512 478.682 335.453 477.358 326.672C477.206 324.734 476.792 323.788 476.526 324.468C473.652 332.934 476.817 294.12 475.734 285.548C475.734 285.548 466.851 187.095 460.425 178.775C460.425 178.775 429.551 72.6396 428.151 57.5127C428 56.601 426.559 39.3716 420.812 33.0576C418.402 29.9377 420.391 28.0063 417.73 27.5314C415.069 27.0565 419.169 31.9548 417.307 32.2069C415.445 32.4591 414.774 28.3126 414.395 29.8703C414.016 31.428 411.388 27.9232 412.329 27.1961C413.271 26.469 407.892 21.4517 408.614 19.3132C409.335 17.1747 405.238 16.0694 405.663 12.4205C406.088 8.77156 403.622 6.09077 402.754 3.12394C402.228 1.31637 402.129 1.39289 401.07 4.42506C399.753 8.76284 399.158 9.2221 398.246 6.60642C397.333 3.99074 394.05 -0.668824 393.809 0.861885C393.633 1.74355 393.152 2.53503 392.45 3.09711C391.41 3.90075 393.027 30.1659 391.856 30.5959C386.86 32.3203 389.538 16.0204 386.052 21.9542C383.601 25.745 384.912 13.8213 383.122 13.8596C381.332 13.8979 379.669 7.75041 377.002 5.93615C375.535 4.8557 375.29 4.33342 376.202 4.18258C377.114 4.03174 377.044 3.53196 377.044 3.53196C375.973 2.14535 376.06 -0.609824 374.425 0.65305C372.79 1.91592 372.494 9.41857 373.642 13.6707C374.341 16.2144 374.03 17.2454 372.593 18.3552C369.273 20.9192 368.355 15.2241 368.327 23.0734C368.744 36.825 365.731 13.7723 361.279 15.0758C360.207 15.4292 359.474 14.889 359.044 13.7184C358.615 12.5479 356.744 12.1743 356.984 14.1237C357.224 16.0731 353.921 17.1221 354.763 18.2116C355.604 19.3011 352.581 23.3756 351.877 16.0124C351.174 8.64933 344.878 2.44336 346.031 11.515C348.625 28.8029 339.572 28.7582 340.85 26.111C341.154 25.4807 340.621 25.8138 340.107 26.685C335.879 31.4528 336.819 14.4394 332.954 17.4244C332.834 17.5346 332.688 17.6117 332.529 17.6481C332.37 17.6845 332.204 17.679 332.048 17.6319C331.892 17.5849 331.751 17.498 331.639 17.3799C331.527 17.2619 331.447 17.1167 331.408 16.9585C331.131 15.986 330.719 16.067 329.859 17.2061C328.998 18.3451 328.323 18.3925 328.069 17.2444C327.044 13.7666 326.254 18.1719 327.042 23.4933C327.993 30.6651 326.753 33.3619 322.278 27.5678C320.703 36.6913 318.883 37.3058 318.243 35.3497C317.602 33.3936 315.078 34.6317 313.972 30.7419C313.5 29.209 312.926 28.4662 312.48 28.8106C311.142 29.8438 310.912 26.7803 312.228 24.1825C314.296 19.8965 311.616 23.3902 308.685 23.2822C305.753 23.1742 308.087 26.1951 307.059 32.444C306.032 38.6929 308.423 37.7946 305.922 38.8571C301.017 40.9057 302.935 28.4349 300.328 26.4946C298.521 25.2814 298.157 15.2845 294.493 12.8963C290.829 10.508 292.389 10.1727 292.499 16.255C292.608 22.3373 290.563 29.2142 291.685 33.3291C293.525 40.5256 289.855 45.8111 291.132 51.1505C292.084 54.8421 290.306 63.8058 288.676 63.6415C287.1 59.4597 286.206 55.0516 286.028 50.5855C286.223 48.3795 285.534 47.4881 284.001 47.9609C282.467 48.4337 282.848 47.9025 283.198 46.921C283.547 45.9395 282.087 38.2118 281.706 44.9897C281.77 46.652 281.372 48.2998 280.558 49.7506C279.22 50.7839 279.595 53.4198 280.187 51.9341C280.78 50.4484 284.394 54.615 282.273 55.1463C281.678 55.6056 281.183 55.9882 281.412 56.2854C281.642 56.5825 280.92 58.721 279.467 56.8392C278.014 54.9573 275.412 53.3299 275.32 57.5123C272.87 97.3556 337.101 273 335.615 274.148C334.128 275.296 294.553 273.526 287.569 275.441C269.477 280.797 195.636 260.267 104.052 294.398C92.1067 298.801 86.9718 297.786 84.172 300.818C82.3901 303.222 62.6128 311.619 59.6868 310.084C55.5611 307.815 47.2478 315.897 45.3574 323.998C43.467 332.1 33.0202 333.527 36.5418 341.876C38.2309 345.395 35.3896 355.337 37.7611 358.408C40.1325 361.478 36.6906 375.047 36.2488 366.692C36.0635 363.277 34.4632 362.536 34.9605 367.687C35.4579 372.837 32.5929 375.682 32.8761 371.747C33.0438 369.404 29.6265 359.551 28.1857 373.868C24.21 412.043 143.397 558.366 129.23 560.611C79.5119 570.391 19.2201 539.238 -93.3794 571.969C-128.602 582.491 -144.35 579 -154.389 598.06C-157.584 604.165 -165.533 611.49 -166.395 622.356C-167.852 636.448 -162.917 641.096 -164.83 644.866C-167.394 649.535 -159.331 666.631 -161.131 669.524C-162.932 672.417 -159.84 675.088 -156.121 676.011" fill="#E3F1FD"/>
</svg>
