<svg width="374" height="82" viewBox="0 0 374 82" fill="none" xmlns="http://www.w3.org/2000/svg">
<path d="M71.9507 80.572C70.8572 80.572 71.076 79.9912 72.2632 79.9428C73.4504 79.8944 72.8255 80.693 71.9507 80.572ZM368.345 45.284C367.689 44.5579 370.751 42.8637 369.564 41.3631C368.376 39.8625 371.657 38.9428 371.563 36.2562C371.563 33.8359 375.437 26.3572 373.469 25.2196C372.837 24.6683 372.408 23.9955 372.226 23.2717C372.045 22.5478 372.118 21.7995 372.438 21.1051C372.577 20.913 372.651 20.6963 372.651 20.4758C372.651 20.2554 372.577 20.0386 372.438 19.8465C371.219 18.588 371.157 14.0378 369.314 13.4327C366.439 12.6098 367.408 10.3105 361.909 9.48762C352.911 8.18066 329.043 1.08918 264.527 1.11338C230.38 1.11338 223.538 -0.701838 195.264 0.290488C166.458 1.37963 160.897 6.84948 132.779 6.75267C79.6675 7.06731 55.1737 1.91205 29.3989 14.0136C25.6811 15.732 13.1218 19.1931 11.6534 21.4439C8.81034 26.0909 -2.12442 25.1712 0.531169 26.7202C1.46843 27.2527 0.124998 26.575 1.09351 31.3188C1.9058 34.7556 1.65586 36.5708 0.312451 37.9746C-0.0510559 38.6247 -0.11602 39.3516 0.128438 40.0343C0.372896 40.7169 0.911986 41.3141 1.65584 41.7261C3.15547 42.5974 3.87402 47.8011 4.37389 48.0915C5.5611 48.7934 -1.87455 51.2864 3.96773 52.3271C5.93599 52.7143 6.21717 52.8837 7.09195 54.1907C8.87275 56.974 12.5594 56.611 11.3722 57.7969C10.8411 58.3536 10.9348 58.4021 12.1533 58.3052C13.3717 58.2084 18.183 59.9995 17.7144 60.5077C17.2457 61.016 14.5901 59.2975 15.4649 60.9675C16.3397 62.6375 21.932 62.5165 20.2761 64.235C19.4014 65.1305 22.4944 67.2604 25.8061 66.8973C29.1177 66.5343 29.6176 67.0909 28.6803 68.7125C28.0555 69.8501 28.1179 69.9227 28.8677 69.366C29.6176 68.8093 31.3671 69.0998 30.5548 69.9711C30.1487 70.3583 30.3674 70.6488 31.2734 71.0119C33.3979 71.7864 30.7736 72.4156 31.9608 73.1175C33.148 73.8194 32.6793 71.9315 33.7415 72.5608C34.8037 73.1901 35.2724 71.8347 37.5531 73.1659C41.7083 75.5862 54.6114 75.0538 55.205 75.3926C56.2984 76.0219 55.0175 78.0065 56.8608 77.9339C58.7041 77.8613 59.3602 79.8701 60.5786 79.5071C61.141 79.3135 61.3909 79.5071 61.5471 80.0638C61.7033 80.6205 63.0154 80.8625 63.1404 79.8943C63.1404 79.4829 63.4528 79.5797 64.0152 80.1122C65.9522 81.9274 75.981 80.1122 76.8558 80.6931C77.7305 81.274 78.1992 81.5644 79.98 80.8383C81.7608 80.1122 86.2284 81.1771 86.6033 80.451C86.9782 79.7249 91.9144 78.7326 93.1954 79.967C94.4763 81.2013 97.2882 80.5478 98.1629 79.6523C98.1629 79.4829 98.4128 79.6523 98.3816 80.1364C98.3503 80.6204 98.3816 80.7899 98.9127 80.2816C100.381 78.7568 114.534 78.8778 115.94 79.6523C116.44 79.9427 126.437 78.9263 127.437 80.3058C128.062 81.0561 128.749 79.9428 132.279 79.7008C134.935 79.4829 136.372 79.7008 134.997 80.1606C134.591 80.3058 135.341 80.4026 136.591 80.451C142.839 80.451 140.371 79.2651 142.839 79.9912C144.62 80.6205 144.401 79.6281 145.37 80.1848C146.338 80.7414 147.213 79.6765 147.932 80.4026C148.65 81.1287 151.337 78.4664 153.055 80.1606C153.055 80.1606 203.855 81.5644 204.261 81.8064C206.167 82.9197 288.209 75.9977 289.584 75.8525C307.735 73.9646 324.512 67.8655 323.544 67.3088C322.575 66.7521 324.231 66.5342 324.544 67.0909C324.856 67.6476 326.668 67.091 327.199 66.026C332.343 62.0916 338.665 59.2061 345.601 57.6276C351.48 56.6775 356.812 54.2941 360.816 50.8265C360.816 50.8265 368.845 45.8407 368.283 45.2114" fill="#F9F5E9"/>
</svg>
