<svg width="434" height="597" viewBox="0 0 434 597" fill="none" xmlns="http://www.w3.org/2000/svg">
<path d="M43.9252 8.44089C43.9252 7.28717 47.6372 6.57722 48.2146 7.64219C48.7921 8.70717 43.9252 9.06213 43.9252 8.44089ZM13.4057 13.0557C16.2253 12.0786 19.1978 11.7166 22.1491 11.9908C17.1175 13.677 7.46671 15.8956 13.4057 13.0557ZM293.279 57.4298C292.455 55.2111 293.774 54.5011 296.249 57.4298C298.724 60.3585 294.352 59.826 293.279 57.4298ZM299.961 60.536C299.961 56.4536 306.56 64.6183 301.94 62.6659C300.868 62.6659 299.961 61.246 299.961 60.536ZM-109.003 88.3143C-109.003 86.5393 -104.879 86.4505 -105.869 88.3143C-106.858 90.178 -109.003 90.2667 -109.003 88.3143ZM343.348 96.7454C339.801 91.953 347.39 98.9641 345.493 98.9641C344.659 98.3705 343.932 97.6187 343.348 96.7454ZM-122.696 109.17C-122.696 108.105 -120.221 106.508 -120.221 108.194C-120.221 109.88 -122.696 109.791 -122.696 109.17ZM-136.966 112.365C-137.956 110.59 -135.151 110.59 -135.151 112.365C-135.151 114.14 -136.306 113.874 -136.966 112.365ZM-127.067 117.69C-128.057 115.915 -125.17 116.004 -125.17 117.69C-125.17 119.376 -126.325 119.199 -127.067 117.69ZM-183.323 184.34C-182.663 182.21 -179.528 180.879 -180.601 183.807C-181.673 186.736 -184.065 186.736 -183.323 184.34ZM410.574 199.161C410.574 197.652 413.131 197.208 413.131 200.048C413.131 202.888 410.574 201.113 410.574 199.161ZM-198.665 200.314C-191.571 192.061 -193.963 193.037 -190.416 190.552C-183.735 185.937 -191.324 191.972 -191.324 194.635C-191.324 197.297 -213.347 215.934 -198.912 200.314L-198.665 200.314ZM415.111 212.029C414.368 205.551 415.111 204.486 418.658 217.354C419.813 221.437 415.688 217.354 415.111 212.029ZM-215.575 222.058C-214.42 222.058 -213.018 220.549 -212.44 218.685C-210.543 213.538 -199.325 200.936 -208.728 215.756C-213.595 223.478 -211.698 224.631 -214.915 224.631C-218.132 224.631 -217.884 221.969 -215.575 221.969L-215.575 222.058ZM-224.648 239.186C-224.648 234.66 -221.761 239.186 -222.586 240.606C-223.411 242.026 -224.648 242.381 -224.648 239.186ZM-239.495 278.857C-236.278 274.33 -236.608 280.898 -239.495 280.898C-240.238 280.898 -240.238 280.099 -239.495 278.857ZM-214.75 280.188C-213.842 277.437 -212.605 278.857 -213.677 280.72C-214.75 282.584 -215.575 282.495 -214.75 280.188ZM-217.719 292.612C-216.812 290.039 -216.565 296.606 -217.719 295.186C-217.914 294.79 -218.016 294.348 -218.016 293.899C-218.016 293.451 -217.914 293.009 -217.719 292.612ZM-246.919 314.888C-244.939 303.972 -242.465 319.148 -245.764 317.906C-246.507 317.906 -247.002 316.22 -246.919 314.888ZM-222.173 321.367C-220.524 314.445 -221.019 314.267 -220.854 322.964C-220.689 331.662 -223.823 328.201 -222.173 321.367ZM-223.246 335.833C-223.246 333.881 -220.689 332.372 -220.689 334.945C-220.689 337.519 -223.246 337.342 -223.246 335.833ZM-240.65 422.895C-240.65 418.546 -236.114 428.131 -239.331 426.001C-239.76 425.629 -240.102 425.155 -240.331 424.616C-240.56 424.076 -240.67 423.487 -240.65 422.895ZM-234.876 439.402C-236.196 433.19 -233.144 438.781 -233.144 441.887C-233.144 444.993 -233.886 444.283 -234.876 439.402ZM-27.2597 395.028C-22.8879 244.156 -17.0317 246.108 44.1727 234.66C103.727 223.478 151.404 232.53 176.15 259.953C200.895 287.376 194.297 346.394 171.861 381.006C153.466 409.228 143.981 428.131 135.072 431.326C75.3524 452.359 9.11644 454.312 -27.5897 395.028L-27.2597 395.028ZM-120.469 575.542C-120.469 575.542 -206.336 500.106 -227.123 398.045C-236.691 352.872 -233.227 346.483 -236.196 346.838C-239.166 347.193 -238.341 285.247 -221.101 252.055C-215.657 240.517 -219.204 240.429 -217.554 241.316C-213.512 244.156 -213.595 231.998 -211.203 228.714C-211.203 228.714 -192.479 196.765 -190.829 202.089C-190.169 204.663 -183.9 188.6 -182.58 188.6C-179.198 188.6 -184.395 195.7 -185.632 201.291C-186.87 206.882 -191.406 211.585 -191.406 206.349C-191.406 202.799 -193.468 206.349 -194.211 211.053C-194.953 215.756 -193.716 216.555 -190.911 212.384C-188.107 208.213 -188.932 209.278 -189.674 213.982C-190.399 217.948 -192.418 221.504 -195.366 224.01C-192.643 204.131 -197.428 228.27 -206.089 246.197C-233.474 305.215 -227.947 368.758 -224.235 363.167C-221.431 359.174 -219.946 364.765 -219.946 366.717C-219.946 368.67 -220.689 368.847 -226.463 366.717C-223.91 393.21 -217.363 419.079 -207.079 443.307C-115.602 644.765 25.2837 621.957 25.2837 633.938C25.2837 642.813 -84.6699 613.792 -120.469 575.364L-120.469 575.542ZM28.8305 635.713C23.4689 634.648 28.0058 632.784 34.1097 633.583C43.843 635.003 36.5841 637.31 28.8305 635.713ZM75.6 635.713C77.9921 635.003 81.2089 636.334 77.2495 636.334C75.4348 636.334 74.8576 636.334 75.6 635.713ZM42.0283 636.778C40.7085 636.778 42.0282 633.849 43.5129 634.471C44.9977 635.092 60.0099 635.269 60.4224 636.689C54.3159 637.53 48.1348 637.53 42.0283 636.689L42.0283 636.778ZM64.7941 636.689C64.7941 636.336 64.9246 635.997 65.1566 635.748C65.3886 635.498 65.7035 635.358 66.0316 635.358C66.3597 635.358 66.6743 635.498 66.9063 635.748C67.1384 635.997 67.2688 636.336 67.2688 636.689C67.2688 637.042 67.1384 637.381 66.9063 637.63C66.6743 637.88 66.3597 638.02 66.0316 638.02C65.7035 638.02 65.3886 637.88 65.1566 637.63C64.9246 637.381 64.7941 637.042 64.7941 636.689ZM69.1661 636.689C70.0734 635.003 72.218 634.826 72.218 636.689C72.218 638.553 68.2588 638.553 69.1661 636.689ZM158.003 639.352C158.003 637.399 170.706 632.341 177.14 627.016C183.574 621.691 188.11 625.329 185.388 623.554C182.666 621.779 190.173 617.963 191.08 617.963C200.022 609.758 210.32 603.435 221.435 599.326C355.886 553.887 434 475.079 434 310.451C434 256.67 429.793 262.438 429.793 251.167C429.793 248.061 427.154 247.883 428.144 246.108C431.031 241.05 415.276 192.86 409.254 177.861C407.192 171.915 406.532 180.257 408.347 184.074C411.811 191.262 406.615 189.132 404.553 184.074C400.923 177.062 405.873 180.08 406.532 175.199C407.027 171.738 404.883 165.703 403.398 166.324C402.827 166.367 402.256 166.24 401.747 165.959C401.238 165.677 400.811 165.251 400.511 164.726C396.881 159.401 400.511 171.826 403.315 168.897C404.058 168.099 402.82 175.288 402.078 176.353C396.671 167.49 392.164 158.028 388.633 148.13C389.87 146.71 391.437 147.065 391.437 148.663C391.437 150.26 395.067 154.609 395.727 153.81C396.387 153.012 393.582 144.936 391.355 144.137C389.128 143.338 388.963 142.628 389.128 141.563C389.953 134.73 385.003 134.108 388.385 143.427C388.963 145.202 388.386 145.468 386.653 144.936C384.921 144.403 384.344 143.693 385.251 141.297C387.231 135.262 379.147 130.647 382.612 137.569C390.86 154.52 366.114 114.051 344.256 93.1953C338.482 87.3379 341.286 86.7168 339.224 86.7168C337.162 86.7168 306.23 57.3412 302.683 57.3412C302.109 57.2493 301.572 56.9834 301.134 56.5747C300.695 56.1661 300.374 55.6315 300.208 55.0337C295.589 41.2777 263.915 30.3616 285.773 44.65C316.458 64.6184 254.759 33.2904 254.759 30.8942C254.759 30.2729 228.116 26.1905 222.919 20.5993C214.367 16.8758 205.417 14.3121 196.276 12.9671C162.457 -1.67631 79.3116 1.07483 78.9816 0.98608C31.4699 -8.42122 -105.044 52.9925 -79.5558 36.4854C-76.3389 34.4441 -76.5038 31.9592 -82.1129 36.4854C-84.7852 38.2866 -87.753 39.5217 -90.8563 40.1241C-93.5784 40.1241 -95.8053 41.4553 -95.8053 42.0765C-95.8053 46.7802 -107.271 49.265 -108.756 50.5074C-112.632 53.6136 -108.096 54.5012 -103.064 51.75C-100.788 50.422 -98.3422 49.4649 -95.8053 48.91C-88.8765 48.0226 -110.57 51.8386 -133.336 82.6342C-139.853 91.5091 -151.731 116.092 -151.731 110.679C-151.731 110.146 -152.886 110.679 -154.288 112.01C-158.66 116.359 -165.836 141.652 -157.092 122.571C-141.42 88.2254 -170.372 171.56 -177.384 171.56C-181.013 171.56 -173.507 165.436 -174.414 161.265C-175.322 157.094 -184.642 172.803 -180.106 174.666C-180.106 174.666 -217.637 216.644 -217.637 220.105C-217.637 223.567 -216.812 210.165 -239.495 269.893C-267.788 344.175 -238.505 417.836 -243.537 414.464C-245.599 413.133 -244.032 409.849 -247.497 405.589C-256.158 394.407 -234.629 447.389 -237.433 448.277C-240.238 449.164 -239 453.602 -237.928 451.56C-234.381 441.887 -218.957 507.738 -149.669 579.979C-141.42 588.144 -144.884 589.564 -143.317 588.41C-140.1 586.28 -91.5985 633.406 -34.271 648.582C-20.2484 652.131 -22.2282 655.415 -20.0011 653.818C-17.774 652.22 -13.4023 658.255 -15.6294 654.616C-17.8565 650.978 1.61012 659.409 4.24966 658.787C9.36376 657.989 5.48715 661.184 10.1063 661.184C12.086 661.184 12.4159 660.74 11.3436 660.119C10.2712 659.497 13.3232 659.32 17.53 659.586C29.4079 660.562 24.8712 663.846 31.7175 663.846C38.5638 663.846 33.6972 661.184 35.8418 661.184C37.9864 661.184 34.6044 664.379 42.688 663.136C50.7716 661.894 45.3275 664.734 60.4224 665C67.7636 665 70.7331 665 69.4958 663.846C66.6088 661.716 74.9399 662.16 73.8676 663.846C70.4857 669.97 157.756 648.049 157.756 639.796" fill="#F9F5E9"/>
</svg>
